<svg xmlns="http://www.w3.org/2000/svg" style="display:none" aria-hidden="true">
  <symbol id="icon-dashboard" viewBox="0 0 24 24">
    <rect x="3" y="3" width="8" height="8" rx="2" />
    <rect x="13" y="3" width="8" height="8" rx="2" />
    <rect x="3" y="13" width="8" height="8" rx="2" />
    <rect x="13" y="13" width="8" height="8" rx="2" />
  </symbol>
  <symbol id="icon-projects" viewBox="0 0 24 24">
    <rect x="3" y="5" width="18" height="14" rx="2.5" />
    <path d="M3 10h18" />
    <path d="M8 5v14" />
  </symbol>
  <symbol id="icon-tasks" viewBox="0 0 24 24">
    <path d="M8 12.5l2.5 2.5L15 10.5" />
    <rect x="3" y="4" width="18" height="16" rx="2.5" />
  </symbol>
  <symbol id="icon-upload" viewBox="0 0 24 24">
    <path d="M12 16V5" />
    <path d="m8 9 4-4 4 4" />
    <path d="M4 16v3a2 2 0 0 0 2 2h12a2 2 0 0 0 2-2v-3" />
  </symbol>
  <symbol id="icon-calendar" viewBox="0 0 24 24">
    <rect x="3" y="4" width="18" height="17" rx="2.5" />
    <path d="M8 2v4M16 2v4M3 10h18" />
  </symbol>
  <symbol id="icon-messenger" viewBox="0 0 24 24">
    <path d="M5 4h14a2 2 0 0 1 2 2v9a2 2 0 0 1-2 2H8l-5 4V6a2 2 0 0 1 2-2Z" />
  </symbol>
  <symbol id="icon-email" viewBox="0 0 24 24">
    <rect x="2" y="5" width="20" height="14" rx="2.5" />
    <path d="m3 7 8.1 5.1a1.8 1.8 0 0 0 1.8 0L21 7" />
  </symbol>
  <symbol id="icon-visualizer" viewBox="0 0 24 24">
    <rect x="3" y="3" width="18" height="18" rx="2.5" />
    <path d="M3 9h18M9 3v18" />
  </symbol>
  <symbol id="icon-time" viewBox="0 0 24 24">
    <circle cx="12" cy="12" r="9" />
    <path d="M12 7v5l3 2" />
  </symbol>
  <symbol id="icon-settings" viewBox="0 0 24 24">
    <circle cx="12" cy="12" r="3" />
    <path d="M19.4 15a1.8 1.8 0 0 0 .4 2l.1.1a2 2 0 0 1-2.8 2.8l-.1-.1a1.8 1.8 0 0 0-2-.4 1.8 1.8 0 0 0-1.1 1.7V21a2 2 0 0 1-4 0v-.1a1.8 1.8 0 0 0-1.1-1.7 1.8 1.8 0 0 0-2 .4l-.1.1a2 2 0 1 1-2.8-2.8l.1-.1a1.8 1.8 0 0 0 .4-2 1.8 1.8 0 0 0-1.7-1.1H3a2 2 0 0 1 0-4h.1a1.8 1.8 0 0 0 1.7-1.1 1.8 1.8 0 0 0-.4-2l-.1-.1a2 2 0 1 1 2.8-2.8l.1.1a1.8 1.8 0 0 0 2 .4 1.8 1.8 0 0 0 1.1-1.7V3a2 2 0 0 1 4 0v.1a1.8 1.8 0 0 0 1.1 1.7 1.8 1.8 0 0 0 2-.4l.1-.1a2 2 0 1 1 2.8 2.8l-.1.1a1.8 1.8 0 0 0-.4 2 1.8 1.8 0 0 0 1.7 1.1h.1a2 2 0 0 1 0 4h-.1a1.8 1.8 0 0 0-1.7 1.1Z" />
  </symbol>
  <symbol id="icon-systems" viewBox="0 0 24 24">
    <rect x="3" y="4" width="18" height="7" rx="2" />
    <rect x="3" y="13" width="18" height="7" rx="2" />
    <path d="M7 7h.01M7 16h.01" />
  </symbol>
  <symbol id="icon-agents" viewBox="0 0 24 24">
    <circle cx="9" cy="8" r="3" />
    <path d="M4 19a5 5 0 0 1 10 0" />
    <circle cx="17" cy="9" r="2" />
    <path d="M14 19a4 4 0 0 1 6 0" />
  </symbol>
  <symbol id="icon-files" viewBox="0 0 24 24">
    <path d="M4 5a2 2 0 0 1 2-2h5l2 2h5a2 2 0 0 1 2 2v12a2 2 0 0 1-2 2H6a2 2 0 0 1-2-2Z" />
  </symbol>
  <symbol id="icon-automation" viewBox="0 0 24 24">
    <path d="M6 8h12" />
    <path d="M6 16h12" />
    <path d="m14 5 4 3-4 3" />
    <path d="m10 13-4 3 4 3" />
  </symbol>
  <symbol id="icon-logs" viewBox="0 0 24 24">
    <rect x="4" y="3" width="16" height="18" rx="2" />
    <path d="M8 8h8M8 12h8M8 16h5" />
  </symbol>
  <symbol id="icon-search" viewBox="0 0 24 24">
    <circle cx="11" cy="11" r="7" />
    <path d="m20 20-3.5-3.5" />
  </symbol>
  <symbol id="icon-notifications" viewBox="0 0 24 24">
    <path d="M6 9a6 6 0 1 1 12 0v4l2 2H4l2-2Z" />
    <path d="M10 19a2 2 0 0 0 4 0" />
  </symbol>
  <symbol id="icon-profile" viewBox="0 0 24 24">
    <circle cx="12" cy="8" r="4" />
    <path d="M4 20a8 8 0 0 1 16 0" />
  </symbol>
  <symbol id="icon-assistant" viewBox="0 0 24 24">
    <path d="M5 4h14a2 2 0 0 1 2 2v9a2 2 0 0 1-2 2H8l-5 4V6a2 2 0 0 1 2-2Z" />
    <path d="M8 9h8M8 13h5" />
  </symbol>
  <symbol id="icon-sidebar-collapse" viewBox="0 0 24 24">
    <path d="m11 17-5-5 5-5" />
    <path d="m18 17-5-5 5-5" />
  </symbol>
  <symbol id="icon-logout" viewBox="0 0 24 24">
    <path d="M10 4H5a2 2 0 0 0-2 2v12a2 2 0 0 0 2 2h5" />
    <path d="m15 8 4 4-4 4" />
    <path d="M9 12h10" />
  </symbol>
</svg>
