<svg xmlns="http://www.w3.org/2000/svg" style="display:none" aria-hidden="true">
  <symbol id="icon-dashboard" viewBox="0 0 24 24">
    <rect x="3" y="3" width="8" height="8" rx="2" />
    <rect x="13" y="3" width="8" height="8" rx="2" />
    <rect x="3" y="13" width="8" height="8" rx="2" />
    <rect x="13" y="13" width="8" height="8" rx="2" />
  </symbol>
  <symbol id="icon-projects" viewBox="0 0 24 24">
    <rect x="3" y="5" width="18" height="14" rx="2.5" />
    <path d="M3 10h18" />
    <path d="M8 5v14" />
  </symbol>
  <symbol id="icon-tasks" viewBox="0 0 24 24">
    <path d="M8 12.5l2.5 2.5L15 10.5" />
    <rect x="3" y="4" width="18" height="16" rx="2.5" />
  </symbol>
  <symbol id="icon-upload" viewBox="0 0 24 24">
    <path d="M12 16V5" />
    <path d="m8 9 4-4 4 4" />
    <path d="M4 16v3a2 2 0 0 0 2 2h12a2 2 0 0 0 2-2v-3" />
  </symbol>
  <symbol id="icon-calendar" viewBox="0 0 24 24">
    <rect x="3" y="4" width="18" height="17" rx="2.5" />
    <path d="M8 2v4M16 2v4M3 10h18" />
  </symbol>
  <symbol id="icon-messenger" viewBox="0 0 24 24">
    <path d="M5 4h14a2 2 0 0 1 2 2v9a2 2 0 0 1-2 2H8l-5 4V6a2 2 0 0 1 2-2Z" />
  </symbol>
  <symbol id="icon-email" viewBox="0 0 24 24">
    <rect x="2" y="5" width="20" height="14" rx="2.5" />
    <path d="m3 7 8.1 5.1a1.8 1.8 0 0 0 1.8 0L21 7" />
  </symbol>
  <symbol id="icon-visualizer" viewBox="0 0 24 24">
    <rect x="3" y="3" width="18" height="18" rx="2.5" />
    <path d="M3 9h18M9 3v18" />
  </symbol>
  <symbol id="icon-time" viewBox="0 0 24 24">
    <circle cx="12" cy="12" r="9" />
    <path d="M12 7v5l3 2" />
  </symbol>
  <symbol id="icon-settings" viewBox="0 0 24 24">
    <circle cx="12" cy="12" r="3" />
    <path d="M19.4 15a1.8 1.8 0 0 0 .4 2l.1.1a2 2 0 0 1-2.8 2.8l-.1-.1a1.8 1.8 0 0 0-2-.4 1.8 1.8 0 0 0-1.1 1.7V21a2 2 0 0 1-4 0v-.1a1.8 1.8 0 0 0-1.1-1.7 1.8 1.8 0 0 0-2 .4l-.1.1a2 2 0 1 1-2.8-2.8l.1-.1a1.8 1.8 0 0 0 .4-2 1.8 1.8 0 0 0-1.7-1.1H3a2 2 0 0 1 0-4h.1a1.8 1.8 0 0 0 1.7-1.1 1.8 1.8 0 0 0-.4-2l-.1-.1a2 2 0 1 1 2.8-2.8l.1.1a1.8 1.8 0 0 0 2 .4 1.8 1.8 0 0 0 1.1-1.7V3a2 2 0 0 1 4 0v.1a1.8 1.8 0 0 0 1.1 1.7 1.8 1.8 0 0 0 2-.4l.1-.1a2 2 0 1 1 2.8 2.8l-.1.1a1.8 1.8 0 0 0-.4 2 1.8 1.8 0 0 0 1.7 1.1h.1a2 2 0 0 1 0 4h-.1a1.8 1.8 0 0 0-1.7 1.1Z" />
  </symbol>
  <symbol id="icon-assistant" viewBox="0 0 24 24">
    <path d="M5 4h14a2 2 0 0 1 2 2v9a2 2 0 0 1-2 2H8l-5 4V6a2 2 0 0 1 2-2Z" />
    <path d="M8 9h8M8 13h5" />
  </symbol>
  <symbol id="icon-sidebar-collapse" viewBox="0 0 24 24">
    <path d="m11 17-5-5 5-5" />
    <path d="m18 17-5-5 5-5" />
  </symbol>
  <symbol id="icon-logout" viewBox="0 0 24 24">
    <path d="M10 4H5a2 2 0 0 0-2 2v12a2 2 0 0 0 2 2h5" />
    <path d="m15 8 4 4-4 4" />
    <path d="M9 12h10" />
  </symbol>
</svg>
